<svg width="128" height="44" viewBox="0 0 128 44" fill="none" xmlns="http://www.w3.org/2000/svg">
<g clip-path="url(#clip0_9178_6115)">
<rect y="0.5" width="43" height="43" fill="#202020"/>
<g filter="url(#filter0_d_9178_6115)">
<rect x="8.07983" y="17.1666" width="10.6738" height="1.20836" rx="0.57152" transform="rotate(17.4318 8.07983 17.1666)" fill="#C084FC"/>
<path fill-rule="evenodd" clip-rule="evenodd" d="M7.92482 18.3843C7.64676 18.799 7.42268 19.26 7.26552 19.7605C6.38254 22.5726 7.94642 25.5681 10.7585 26.4511C13.5707 27.3341 16.5661 25.7702 17.4491 22.9581C17.6063 22.4575 17.6859 21.9512 17.6948 21.452L7.92482 18.3843Z" fill="#C084FC"/>
</g>
<g filter="url(#filter1_d_9178_6115)">
<rect width="10.6738" height="1.20836" rx="0.57152" transform="matrix(-0.954074 0.299571 0.299571 0.954074 35.1145 17.1666)" fill="#C084FC"/>
<path fill-rule="evenodd" clip-rule="evenodd" d="M35.2698 18.3843C35.5478 18.799 35.7719 19.26 35.9291 19.7605C36.812 22.5726 35.2482 25.5681 32.436 26.4511C29.6239 27.3341 26.6284 25.7702 25.7455 22.9581C25.5883 22.4575 25.5086 21.9512 25.4998 21.452L35.2698 18.3843Z" fill="#C084FC"/>
</g>
<g filter="url(#filter2_d_9178_6115)">
<path d="M19.6665 35.1146L21.7811 32.9999L23.8957 35.1146" stroke="#C084FC" stroke-width="1.14304" stroke-linecap="round"/>
</g>
</g>
<path d="M12 1H31C37.3513 1 42.5 6.14873 42.5 12.5V31.5C42.5 37.8513 37.3513 43 31 43H12C5.64873 43 0.5 37.8513 0.5 31.5V12.5C0.5 6.14873 5.64873 1 12 1Z" stroke="#C084FC"/>
<path d="M55.35 17.39V15.61H63.25V13H65.03V20H63.25V17.39H55.35ZM53.57 13V20H51.79V13H53.57ZM68.234 16.5C68.234 16.8733 68.3073 17.2067 68.454 17.5C68.6007 17.7867 68.8307 18.02 69.144 18.2C69.464 18.3733 69.8507 18.46 70.304 18.46H75.684C76.3573 18.46 76.8707 18.28 77.224 17.92C77.5773 17.5533 77.754 17.08 77.754 16.5V13H79.534V16.5C79.534 16.9133 79.4507 17.3267 79.284 17.74C79.124 18.1533 78.9007 18.53 78.614 18.87C78.334 19.2033 77.974 19.4767 77.534 19.69C77.1007 19.8967 76.634 20 76.134 20H69.674C69.2073 19.9867 68.7673 19.8733 68.354 19.66C67.9473 19.4467 67.6073 19.1733 67.334 18.84C67.0607 18.5 66.844 18.1267 66.684 17.72C66.5307 17.3067 66.454 16.9 66.454 16.5V13H68.234C68.234 13.3867 68.234 13.97 68.234 14.75C68.234 15.5233 68.234 16.1067 68.234 16.5ZM82.7302 14.73C82.7302 15.3167 82.7302 16.1967 82.7302 17.37C82.7302 18.5367 82.7302 19.4133 82.7302 20H80.9502V13H83.2902L88.4602 15.47L93.6302 13H95.9702V20H94.1902V14.73L88.4602 17.52L82.7302 14.73ZM108.531 16.5C108.531 15.9667 108.381 15.5233 108.081 15.17C107.781 14.8167 107.338 14.6133 106.751 14.56H104.771L99.3315 20H96.8215L103.821 13H107.091C107.551 13.0133 107.988 13.1267 108.401 13.34C108.815 13.5533 109.155 13.83 109.421 14.17C109.695 14.5033 109.911 14.8767 110.071 15.29C110.231 15.6967 110.311 16.1 110.311 16.5V20H108.531V16.5ZM113.502 14.73V20H111.722V13H114.062L123.182 18.26V13H124.962V20H122.632L113.502 14.73Z" fill="white"/>
<path d="M64.53 27.5C64.53 27.9133 64.4467 28.33 64.28 28.75C64.12 29.1633 63.8967 29.5367 63.61 29.87C63.33 30.2033 62.97 30.4767 62.53 30.69C62.0967 30.8967 61.63 31 61.13 31H54.66C54.24 30.9933 53.8367 30.8967 53.45 30.71C53.0633 30.5233 52.73 30.2833 52.45 29.99C52.17 29.69 51.94 29.34 51.76 28.94C51.5867 28.5333 51.4833 28.12 51.45 27.7C51.4233 27.28 51.4833 26.8467 51.63 26.4C51.7767 25.9467 52.0167 25.53 52.35 25.15C53.0233 24.3833 53.8567 24 54.85 24H61.31C61.7767 24.0133 62.2133 24.1267 62.62 24.34C63.0333 24.5533 63.3767 24.83 63.65 25.17C63.9233 25.5033 64.1367 25.8767 64.29 26.29C64.45 26.6967 64.53 27.1 64.53 27.5ZM59.86 28.48H56.11C55.6033 28.48 55.2233 28.3633 54.97 28.13C54.8767 28.0433 54.8033 27.9333 54.75 27.8C54.7033 27.6667 54.69 27.5267 54.71 27.38C54.7367 27.2333 54.7933 27.0967 54.88 26.97C54.9733 26.8433 55.1267 26.74 55.34 26.66C55.5533 26.5733 55.81 26.53 56.11 26.53H59.86C60.3733 26.53 60.7533 26.6433 61 26.87C61.0733 26.9367 61.1333 27.0133 61.18 27.1C61.2267 27.1867 61.2567 27.2833 61.27 27.39C61.2833 27.49 61.28 27.59 61.26 27.69C61.24 27.79 61.1933 27.89 61.12 27.99C61.0533 28.0833 60.9667 28.1667 60.86 28.24C60.76 28.3133 60.6233 28.3733 60.45 28.42C60.2767 28.46 60.08 28.48 59.86 28.48ZM55.24 29.46H60.74C61.1067 29.46 61.43 29.4033 61.71 29.29C61.9967 29.17 62.2133 29.0167 62.36 28.83C62.5133 28.6367 62.63 28.4233 62.71 28.19C62.79 27.95 62.8233 27.71 62.81 27.47C62.8033 27.23 62.7633 27.0033 62.69 26.79C62.6233 26.57 62.53 26.3833 62.41 26.23C62.0433 25.77 61.4867 25.54 60.74 25.54H55.24C54.8667 25.54 54.5367 25.6 54.25 25.72C53.97 25.84 53.7533 25.9967 53.6 26.19C53.4533 26.3767 53.34 26.59 53.26 26.83C53.18 27.0633 53.1467 27.3 53.16 27.54C53.1733 27.78 53.2133 28.01 53.28 28.23C53.3533 28.4433 53.4467 28.6233 53.56 28.77C53.9333 29.23 54.4933 29.46 55.24 29.46ZM76.3644 25.54H67.5644V31H65.7844V24C66.951 24 68.701 24 71.0344 24C73.3677 24 75.121 24 76.2944 24C76.6944 24 77.0544 24.0633 77.3744 24.19C77.701 24.31 77.961 24.47 78.1544 24.67C78.3544 24.87 78.5044 25.1 78.6044 25.36C78.711 25.6133 78.7644 25.8733 78.7644 26.14C78.7644 26.4067 78.7077 26.6667 78.5944 26.92C78.4877 27.1733 78.3344 27.4033 78.1344 27.61C77.941 27.81 77.6844 27.97 77.3644 28.09C77.0444 28.21 76.6877 28.27 76.2944 28.27H75.7144L78.8644 31H76.3544L73.2044 28.27H69.3344L70.8844 26.73H76.3644C76.5844 26.73 76.7544 26.67 76.8744 26.55C77.001 26.4233 77.061 26.2867 77.0544 26.14C77.0544 25.9867 76.991 25.85 76.8644 25.73C76.7444 25.6033 76.5777 25.54 76.3644 25.54ZM86.8853 30.21V29.45H97.5853C97.7253 29.45 97.8486 29.42 97.9553 29.36C98.0686 29.3 98.1486 29.2267 98.1953 29.14C98.242 29.0533 98.2653 28.96 98.2653 28.86C98.2653 28.7533 98.242 28.6567 98.1953 28.57C98.1486 28.4833 98.072 28.41 97.9653 28.35C97.8586 28.29 97.732 28.26 97.5853 28.26H86.8853V26.73H97.5853C97.7986 26.73 97.9653 26.67 98.0853 26.55C98.212 26.4233 98.2753 26.2867 98.2753 26.14C98.2753 25.9933 98.212 25.86 98.0853 25.74C97.9653 25.6133 97.7986 25.55 97.5853 25.55H86.8853V24.78C86.8853 24.5667 86.9686 24.3867 87.1353 24.24C87.3086 24.0933 87.5186 24.02 87.7653 24.02H97.5053C97.9053 24.02 98.2753 24.0933 98.6153 24.24C98.962 24.3867 99.242 24.5833 99.4553 24.83C99.6686 25.0767 99.8253 25.3467 99.9253 25.64C100.025 25.9333 100.032 26.2467 99.9453 26.58C99.8586 26.9067 99.6853 27.2067 99.4253 27.48L99.4353 27.49V27.5C99.4353 27.5 99.432 27.5033 99.4253 27.51C99.6853 27.79 99.8586 28.0967 99.9453 28.43C100.032 28.7567 100.025 29.0667 99.9253 29.36C99.8253 29.6533 99.6686 29.9233 99.4553 30.17C99.242 30.4167 98.962 30.6133 98.6153 30.76C98.2753 30.9067 97.9053 30.98 97.5053 30.98H87.7653C87.5186 30.98 87.3086 30.9067 87.1353 30.76C86.9686 30.6067 86.8853 30.4233 86.8853 30.21ZM114.12 27.5C114.12 27.9133 114.037 28.33 113.87 28.75C113.71 29.1633 113.487 29.5367 113.2 29.87C112.92 30.2033 112.56 30.4767 112.12 30.69C111.687 30.8967 111.22 31 110.72 31H104.25C103.83 30.9933 103.427 30.8967 103.04 30.71C102.653 30.5233 102.32 30.2833 102.04 29.99C101.76 29.69 101.53 29.34 101.35 28.94C101.177 28.5333 101.073 28.12 101.04 27.7C101.013 27.28 101.073 26.8467 101.22 26.4C101.367 25.9467 101.607 25.53 101.94 25.15C102.613 24.3833 103.447 24 104.44 24H110.9C111.367 24.0133 111.803 24.1267 112.21 24.34C112.623 24.5533 112.967 24.83 113.24 25.17C113.513 25.5033 113.727 25.8767 113.88 26.29C114.04 26.6967 114.12 27.1 114.12 27.5ZM109.45 28.48H105.7C105.193 28.48 104.813 28.3633 104.56 28.13C104.467 28.0433 104.393 27.9333 104.34 27.8C104.293 27.6667 104.28 27.5267 104.3 27.38C104.327 27.2333 104.383 27.0967 104.47 26.97C104.563 26.8433 104.717 26.74 104.93 26.66C105.143 26.5733 105.4 26.53 105.7 26.53H109.45C109.963 26.53 110.343 26.6433 110.59 26.87C110.663 26.9367 110.723 27.0133 110.77 27.1C110.817 27.1867 110.847 27.2833 110.86 27.39C110.873 27.49 110.87 27.59 110.85 27.69C110.83 27.79 110.783 27.89 110.71 27.99C110.643 28.0833 110.557 28.1667 110.45 28.24C110.35 28.3133 110.213 28.3733 110.04 28.42C109.867 28.46 109.67 28.48 109.45 28.48ZM104.83 29.46H110.33C110.697 29.46 111.02 29.4033 111.3 29.29C111.587 29.17 111.803 29.0167 111.95 28.83C112.103 28.6367 112.22 28.4233 112.3 28.19C112.38 27.95 112.413 27.71 112.4 27.47C112.393 27.23 112.353 27.0033 112.28 26.79C112.213 26.57 112.12 26.3833 112 26.23C111.633 25.77 111.077 25.54 110.33 25.54H104.83C104.457 25.54 104.127 25.6 103.84 25.72C103.56 25.84 103.343 25.9967 103.19 26.19C103.043 26.3767 102.93 26.59 102.85 26.83C102.77 27.0633 102.737 27.3 102.75 27.54C102.763 27.78 102.803 28.01 102.87 28.23C102.943 28.4433 103.037 28.6233 103.15 28.77C103.523 29.23 104.083 29.46 104.83 29.46ZM120.21 25.54H114.56V24H127.64V25.54H121.99V31H120.21C120.21 30.3933 120.21 29.4833 120.21 28.27C120.21 27.0567 120.21 26.1467 120.21 25.54Z" fill="white"/>
<defs>
<filter id="filter0_d_9178_6115" x="0.160808" y="10.4532" width="24.8161" height="23.1026" filterUnits="userSpaceOnUse" color-interpolation-filters="sRGB">
<feFlood flood-opacity="0" result="BackgroundImageFix"/>
<feColorMatrix in="SourceAlpha" type="matrix" values="0 0 0 0 0 0 0 0 0 0 0 0 0 0 0 0 0 0 127 0" result="hardAlpha"/>
<feMorphology radius="0.57152" operator="dilate" in="SourceAlpha" result="effect1_dropShadow_9178_6115"/>
<feOffset/>
<feGaussianBlur stdDeviation="3.14336"/>
<feColorMatrix type="matrix" values="0 0 0 0 0.752941 0 0 0 0 0.517647 0 0 0 0 0.988235 0 0 0 0.4 0"/>
<feBlend mode="normal" in2="BackgroundImageFix" result="effect1_dropShadow_9178_6115"/>
<feBlend mode="normal" in="SourceGraphic" in2="effect1_dropShadow_9178_6115" result="shape"/>
</filter>
<filter id="filter1_d_9178_6115" x="18.2174" y="10.4532" width="24.8163" height="23.1026" filterUnits="userSpaceOnUse" color-interpolation-filters="sRGB">
<feFlood flood-opacity="0" result="BackgroundImageFix"/>
<feColorMatrix in="SourceAlpha" type="matrix" values="0 0 0 0 0 0 0 0 0 0 0 0 0 0 0 0 0 0 127 0" result="hardAlpha"/>
<feMorphology radius="0.57152" operator="dilate" in="SourceAlpha" result="effect1_dropShadow_9178_6115"/>
<feOffset/>
<feGaussianBlur stdDeviation="3.14336"/>
<feColorMatrix type="matrix" values="0 0 0 0 0.752941 0 0 0 0 0.517647 0 0 0 0 0.988235 0 0 0 0.4 0"/>
<feBlend mode="normal" in2="BackgroundImageFix" result="effect1_dropShadow_9178_6115"/>
<feBlend mode="normal" in="SourceGraphic" in2="effect1_dropShadow_9178_6115" result="shape"/>
</filter>
<filter id="filter2_d_9178_6115" x="12.2367" y="25.3335" width="19.0888" height="17.2109" filterUnits="userSpaceOnUse" color-interpolation-filters="sRGB">
<feFlood flood-opacity="0" result="BackgroundImageFix"/>
<feColorMatrix in="SourceAlpha" type="matrix" values="0 0 0 0 0 0 0 0 0 0 0 0 0 0 0 0 0 0 127 0" result="hardAlpha"/>
<feMorphology radius="0.57152" operator="dilate" in="SourceAlpha" result="effect1_dropShadow_9178_6115"/>
<feOffset/>
<feGaussianBlur stdDeviation="3.14336"/>
<feColorMatrix type="matrix" values="0 0 0 0 0.752941 0 0 0 0 0.517647 0 0 0 0 0.988235 0 0 0 0.4 0"/>
<feBlend mode="normal" in2="BackgroundImageFix" result="effect1_dropShadow_9178_6115"/>
<feBlend mode="normal" in="SourceGraphic" in2="effect1_dropShadow_9178_6115" result="shape"/>
</filter>
<clipPath id="clip0_9178_6115">
<path d="M0 12.5C0 5.87258 5.37258 0.5 12 0.5H31C37.6274 0.5 43 5.87258 43 12.5V31.5C43 38.1274 37.6274 43.5 31 43.5H12C5.37258 43.5 0 38.1274 0 31.5V12.5Z" fill="white"/>
</clipPath>
</defs>
</svg>
